<svg width="208" height="211" viewBox="0 0 208 211" fill="none" xmlns="http://www.w3.org/2000/svg">
<path d="M103.564 0.489594L117.795 24.851L139.501 6.82634L144.543 34.5862L171.104 25.0723L166.347 52.8822L194.56 53.0266L180.579 77.5325L207.041 87.3178L185.521 105.564L207.041 123.81L180.579 133.595L194.56 158.101L166.347 158.245L171.104 186.055L144.543 176.541L139.501 204.301L117.795 186.276L103.564 210.638L89.3318 186.276L67.6262 204.301L62.5847 176.541L36.0233 186.055L40.7803 158.245L12.5668 158.101L26.5485 133.595L0.0858154 123.81L21.6058 105.564L0.0858154 87.3178L26.5485 77.5325L12.5668 53.0266L40.7803 52.8822L36.0233 25.0723L62.5847 34.5862L67.6262 6.82634L89.3318 24.851L103.564 0.489594Z" fill="#5D88F5"/>
</svg>
