<svg width="136" height="51" viewBox="0 0 136 51" fill="none" xmlns="http://www.w3.org/2000/svg">
<g clip-path="url(#clip0_1_106)">
<path d="M70.2142 16.8923L76.6845 16.47C76.8321 17.5382 77.1028 18.3331 77.5456 18.9045C78.2591 19.7988 79.2431 20.246 80.547 20.246C81.5065 20.246 82.2692 20.0224 82.7858 19.5504C83.2779 19.1778 83.5731 18.5816 83.5731 17.9605C83.5731 17.3643 83.3025 16.793 82.835 16.4203C82.343 15.9732 81.1867 15.526 79.3661 15.1286C76.3893 14.4578 74.2489 13.5635 72.9942 12.4208C71.7395 11.3526 71.0261 9.7876 71.0753 8.12321C71.0753 6.98049 71.4197 5.83777 72.0593 4.89379C72.7974 3.8256 73.8061 2.98098 75.0116 2.50899C76.3155 1.93763 78.136 1.63953 80.424 1.63953C83.2287 1.63953 85.369 2.1612 86.8452 3.22939C88.3213 4.27275 89.207 5.96198 89.4776 8.27226L83.081 8.64488C82.9088 7.65122 82.5644 6.93081 81.9986 6.45882C81.4327 5.98682 80.6947 5.76325 79.7352 5.76325C78.9479 5.76325 78.3575 5.93714 77.9638 6.26008C77.5948 6.55818 77.3488 7.00533 77.3734 7.50217C77.3734 7.87479 77.5702 8.22258 77.8654 8.44615C78.1852 8.74425 78.9479 9.01751 80.1534 9.26593C83.1302 9.91181 85.246 10.5577 86.5499 11.2284C87.8538 11.8991 88.7887 12.7189 89.3546 13.6877C89.945 14.6814 90.2402 15.8241 90.2156 16.9917C90.2156 18.3828 89.822 19.774 89.0347 20.9415C88.2229 22.1588 87.0912 23.1028 85.7627 23.6741C84.3604 24.2952 82.589 24.6181 80.4732 24.6181C76.7337 24.6181 74.1505 23.8977 72.699 22.432C71.2475 20.9664 70.3864 19.1281 70.2142 16.8923ZM1.54993 24.2455V2.03699H12.8915C14.9826 2.03699 16.6064 2.21089 17.7135 2.58351C18.7959 2.93129 19.7554 3.6517 20.3951 4.62053C21.1085 5.68872 21.453 6.93081 21.4284 8.22257C21.5022 10.4086 20.3951 12.4953 18.5007 13.5884C17.7627 14.0107 16.9508 14.3088 16.1143 14.4578C16.7294 14.6317 17.3444 14.9298 17.8857 15.2776C18.3039 15.6254 18.6483 16.0229 18.9682 16.4452C19.3372 16.8675 19.657 17.3395 19.9276 17.8363L23.2243 24.2703H15.4993L11.8582 17.4388C11.3907 16.5694 10.9971 15.998 10.6281 15.7248C10.136 15.377 9.54559 15.2031 8.95514 15.2031H8.36469V24.2206H1.54993V24.2455ZM8.36469 11.0297H11.2431C11.8582 10.98 12.4486 10.8806 13.0391 10.7316C13.4819 10.6571 13.8755 10.4086 14.1462 10.036C14.8104 9.14172 14.712 7.87479 13.9001 7.1047C13.4573 6.73207 12.5962 6.53334 11.3661 6.53334H8.36469V11.0297ZM0 43.2742L6.47033 42.8519C6.61795 43.9201 6.88857 44.715 7.3314 45.2864C8.02026 46.1807 9.02894 46.6527 10.3329 46.6527C11.2923 46.6527 12.055 46.4291 12.5716 45.9571C13.0637 45.5596 13.3589 44.9883 13.3589 44.3672C13.3589 43.771 13.0883 43.1997 12.6208 42.8271C12.1288 42.3799 10.9725 41.9328 9.12735 41.5353C6.15051 40.8646 4.01013 39.9703 2.75543 38.8275C1.50072 37.7593 0.787265 36.1943 0.836469 34.5299C0.836469 33.3872 1.1809 32.2445 1.82055 31.3005C2.55861 30.2323 3.56729 29.3877 4.77279 28.9157C6.0767 28.3443 7.89725 28.0462 10.1852 28.0462C12.9899 28.0462 15.1302 28.5679 16.6064 29.6361C18.0825 30.7043 18.9436 32.3687 19.2142 34.679L12.8177 35.0516C12.6454 34.0579 12.301 33.3375 11.7352 32.8655C11.1939 32.3935 10.4313 32.17 9.47178 32.1948C8.68452 32.1948 8.09407 32.3687 7.70043 32.7165C7.3068 33.0146 7.08538 33.4617 7.10999 33.9586C7.10999 34.3312 7.3068 34.679 7.60203 34.9026C7.92185 35.2007 8.68452 35.4739 9.89002 35.7223C12.8669 36.3682 14.9826 37.0141 16.2865 37.6848C17.5904 38.3555 18.5253 39.1753 19.0912 40.1442C19.6816 41.1378 19.9768 42.2805 19.9768 43.4233C19.9768 44.8144 19.5586 46.1807 18.7959 47.3482C17.9841 48.5655 16.8524 49.5095 15.5239 50.0808C14.1216 50.7019 12.3502 51.0248 10.2344 51.0248C6.49493 51.0248 3.91172 50.3044 2.4602 48.8387C1.00868 47.3482 0.196816 45.51 0 43.2742Z" fill="white"/>
<path d="M32.7206 41.5353L38.6743 43.3487C38.3544 44.8641 37.6902 46.3049 36.7799 47.5718C35.9434 48.6897 34.8364 49.5592 33.5817 50.1305C32.3023 50.7019 30.6786 51 28.7104 51C26.3241 51 24.3559 50.6522 22.8552 49.9566C21.3298 49.2611 20.0259 48.019 18.9188 46.2552C17.8118 44.4915 17.2705 42.2309 17.2705 39.4734C17.2705 35.7969 18.23 32.9649 20.1735 31.0024C22.1171 29.0399 24.8479 28.0463 28.3906 28.0463C31.1707 28.0463 33.3356 28.6176 34.9348 29.7355C36.5093 30.8782 37.6902 32.6171 38.4775 34.9523L32.4746 36.2937C32.3269 35.772 32.1055 35.2504 31.8103 34.8032C31.4413 34.2815 30.9738 33.8841 30.408 33.586C29.8421 33.2879 29.2025 33.1637 28.5628 33.1637C27.0129 33.1637 25.832 33.7847 25.0201 35.0516C24.4051 35.9708 24.0853 37.4364 24.0853 39.4238C24.0853 41.8831 24.4543 43.5723 25.1924 44.4915C25.9304 45.4106 26.9637 45.8578 28.3168 45.8578C29.6207 45.8578 30.6048 45.4851 31.2691 44.7647C31.9333 43.9946 32.4254 42.9264 32.7206 41.5353ZM46.6207 28.4189H53.4109V36.1943H60.8407V28.4189H67.6801V50.6274H60.8407V41.6347H53.4109V50.6274H46.6207V28.4189Z" fill="white"/>
<path d="M66.7454 39.5232C66.7454 35.8963 67.754 33.0643 69.7468 31.0522C71.7396 29.04 74.5442 28.0215 78.1115 28.0215C81.7772 28.0215 84.5818 29.0152 86.5746 31.0025C88.5674 32.9898 89.5514 35.7721 89.5514 39.3493C89.5514 41.9577 89.1086 44.0692 88.2475 45.7336C87.4111 47.3732 86.1072 48.7146 84.508 49.6089C82.8597 50.5281 80.8177 51.0001 78.3821 51.0001C75.8973 51.0001 73.8554 50.6026 72.2316 49.8076C70.5587 48.963 69.181 47.6464 68.2707 46.0317C67.262 44.2928 66.7454 42.1316 66.7454 39.5232ZM73.5355 39.548C73.5355 41.7838 73.9538 43.3985 74.7656 44.3922C75.5775 45.361 76.7092 45.8578 78.1361 45.8578C79.5876 45.8578 80.7193 45.3858 81.5312 44.417C82.343 43.4482 82.7367 41.7341 82.7367 39.2499C82.7367 37.1632 82.3185 35.623 81.482 34.6791C80.6455 33.7102 79.5138 33.2382 78.0869 33.2382C76.8322 33.1886 75.6267 33.7351 74.7902 34.7039C73.9538 35.6727 73.5355 37.2874 73.5355 39.548ZM96.5138 39.5232C96.5138 35.8963 97.5225 33.0643 99.5153 31.0522C101.508 29.04 104.313 28.0215 107.88 28.0215C111.546 28.0215 114.375 29.0152 116.343 31.0025C118.311 32.9898 119.32 35.7721 119.32 39.3493C119.32 41.9577 118.877 44.0692 118.016 45.7336C117.18 47.3732 115.876 48.7146 114.276 49.6089C112.628 50.5281 110.586 51.0001 108.151 51.0001C105.666 51.0001 103.624 50.6026 102 49.8076C100.327 48.963 98.9494 47.6464 98.0391 46.0317C97.0305 44.2928 96.5138 42.1316 96.5138 39.5232ZM103.304 39.548C103.304 41.7838 103.722 43.3985 104.534 44.3922C105.346 45.361 106.478 45.8578 107.905 45.8578C109.356 45.8578 110.488 45.3858 111.3 44.417C112.112 43.4482 112.505 41.7341 112.505 39.2499C112.505 37.1632 112.087 35.623 111.25 34.6791C110.414 33.7102 109.282 33.2382 107.855 33.2382C106.601 33.1886 105.371 33.7351 104.559 34.7039C103.722 35.6727 103.304 37.2874 103.304 39.548Z" fill="white"/>
<path d="M118.607 28.4189H125.397V45.1622H136V50.6274H118.582V28.4189H118.607Z" fill="white"/>
<path d="M111.122 27.1373C117.958 21.9355 120.066 13.1175 115.83 7.44182C111.594 1.76616 102.619 1.38205 95.7824 6.5839C88.9462 11.7858 86.8381 20.6037 91.0739 26.2794C95.3097 31.9551 104.285 32.3392 111.122 27.1373Z" fill="white"/>
<mask id="mask0_1_106" style="mask-type:luminance" maskUnits="userSpaceOnUse" x="88" y="2" width="31" height="29">
<path d="M111.122 27.1372C117.958 21.9353 120.066 13.1174 115.83 7.4417C111.594 1.76603 102.619 1.38193 95.7824 6.58378C88.9462 11.7856 86.8381 20.6036 91.0739 26.2793C95.3097 31.9549 104.285 32.339 111.122 27.1372Z" fill="white"/>
</mask>
<g mask="url(#mask0_1_106)">
<path d="M73.6394 14.0457L108.966 -12.8353L133.411 19.9193L98.0845 46.8002L73.6394 14.0457Z" fill="white"/>
<mask id="mask1_1_106" style="mask-type:luminance" maskUnits="userSpaceOnUse" x="73" y="-13" width="61" height="60">
<path d="M73.6394 14.0457L108.966 -12.8353L133.411 19.9193L98.0845 46.8002L73.6394 14.0457Z" fill="white"/>
</mask>
<g mask="url(#mask1_1_106)">
<path d="M111.122 27.1372C117.958 21.9353 120.066 13.1174 115.83 7.4417C111.594 1.76603 102.619 1.38193 95.7824 6.58378C88.9462 11.7856 86.8381 20.6036 91.0739 26.2793C95.3097 31.9549 104.285 32.339 111.122 27.1372Z" fill="white"/>
<mask id="mask2_1_106" style="mask-type:luminance" maskUnits="userSpaceOnUse" x="88" y="2" width="31" height="29">
<path d="M111.122 27.1372C117.958 21.9353 120.066 13.1174 115.83 7.4417C111.594 1.76603 102.619 1.38193 95.7824 6.58378C88.9462 11.7856 86.8381 20.6036 91.0739 26.2793C95.3097 31.9549 104.285 32.339 111.122 27.1372Z" fill="white"/>
</mask>
<g mask="url(#mask2_1_106)">
<path d="M83.4763 16.2329L108.213 -2.58928L123.567 17.9842L98.83 36.8064L83.4763 16.2329Z" fill="white"/>
<mask id="mask3_1_106" style="mask-type:luminance" maskUnits="userSpaceOnUse" x="83" y="-3" width="41" height="40">
<path d="M83.4763 16.2328L108.213 -2.5894L123.567 17.9841L98.83 36.8063L83.4763 16.2328Z" fill="white"/>
</mask>
<g mask="url(#mask3_1_106)">
<path d="M111.121 27.1372C117.957 21.9353 120.065 13.1174 115.83 7.4417C111.594 1.76603 102.618 1.38193 95.7819 6.58378C88.9457 11.7856 86.8376 20.6036 91.0734 26.2793C95.3092 31.9549 104.285 32.339 111.121 27.1372Z" fill="white" stroke="white" stroke-width="4" stroke-miterlimit="10"/>
</g>
<mask id="mask4_1_106" style="mask-type:luminance" maskUnits="userSpaceOnUse" x="87" y="-2" width="34" height="38">
<path d="M87.0022 28.6174L95.5716 -1.47565L120.064 5.59605L111.494 35.6891L87.0022 28.6174Z" fill="white"/>
</mask>
<g mask="url(#mask4_1_106)">
<path d="M83.4771 16.2592L108.239 -2.5893L123.568 17.958L98.8054 36.8064L83.4771 16.2592Z" stroke="white" stroke-width="4" stroke-miterlimit="10"/>
</g>
<path d="M111.122 27.1372C117.958 21.9353 120.066 13.1174 115.83 7.4417C111.594 1.76603 102.619 1.38193 95.7824 6.58378C88.9462 11.7856 86.8381 20.6036 91.0739 26.2793C95.3097 31.9549 104.285 32.339 111.122 27.1372Z" stroke="white" stroke-width="4" stroke-miterlimit="10"/>
<path d="M83.4763 16.2329L108.213 -2.58928L123.567 17.9842L98.83 36.8064L83.4763 16.2329Z" fill="white"/>
<mask id="mask5_1_106" style="mask-type:luminance" maskUnits="userSpaceOnUse" x="83" y="-3" width="41" height="40">
<path d="M83.4763 16.2328L108.213 -2.5894L123.567 17.9841L98.83 36.8063L83.4763 16.2328Z" fill="white"/>
</mask>
<g mask="url(#mask5_1_106)">
<path d="M111.121 27.1372C117.957 21.9353 120.065 13.1174 115.83 7.4417C111.594 1.76603 102.618 1.38193 95.7819 6.58378C88.9457 11.7856 86.8376 20.6036 91.0734 26.2793C95.3092 31.9549 104.285 32.339 111.121 27.1372Z" fill="white" stroke="white" stroke-width="4" stroke-miterlimit="10"/>
</g>
<mask id="mask6_1_106" style="mask-type:luminance" maskUnits="userSpaceOnUse" x="87" y="-2" width="34" height="38">
<path d="M87.0022 28.6174L95.5716 -1.47565L120.064 5.59605L111.494 35.6891L87.0022 28.6174Z" fill="white"/>
</mask>
<g mask="url(#mask6_1_106)">
<path d="M83.4771 16.2592L108.239 -2.5893L123.568 17.958L98.8054 36.8064L83.4771 16.2592Z" stroke="white" stroke-width="4" stroke-miterlimit="10"/>
</g>
<path d="M73.6394 14.0457L108.966 -12.8353L133.411 19.9193L98.0845 46.8002L73.6394 14.0457Z" stroke="white" stroke-width="4" stroke-miterlimit="10"/>
</g>
<path d="M111.122 27.1372C117.958 21.9353 120.066 13.1174 115.83 7.4417C111.594 1.76603 102.619 1.38193 95.7824 6.58378C88.9462 11.7856 86.8381 20.6036 91.0739 26.2793C95.3097 31.9549 104.285 32.339 111.122 27.1372Z" fill="#1E1F1F" stroke="white" stroke-width="4" stroke-miterlimit="10"/>
<path d="M96.5378 15.2279L98.998 13.489L102.024 17.8363C102.541 18.5319 102.934 19.2771 103.23 20.0969C103.402 20.718 103.353 21.3887 103.107 21.9849C102.787 22.7301 102.27 23.3512 101.581 23.7983C100.769 24.3697 100.08 24.6926 99.49 24.792C98.9242 24.8914 98.3337 24.792 97.7925 24.5436C97.202 24.2455 96.6854 23.8232 96.2917 23.2767L98.4075 21.2893C98.5797 21.5626 98.8012 21.811 99.0472 22.0097C99.2194 22.1339 99.4162 22.2085 99.6376 22.2085C99.8098 22.2085 99.9821 22.1339 100.105 22.0346C100.351 21.8855 100.523 21.5874 100.499 21.2893C100.425 20.867 100.253 20.4447 99.9821 20.1218L96.5378 15.2279ZM103.918 17.9854L106.157 16.1968C106.403 16.4949 106.723 16.7184 107.067 16.8427C107.559 16.9917 108.076 16.8923 108.494 16.5694C108.79 16.3707 109.036 16.0974 109.134 15.7496C109.282 15.3025 109.036 14.8056 108.593 14.6566C108.519 14.6317 108.445 14.6069 108.371 14.6069C108.076 14.5821 107.559 14.7063 106.797 15.0292C105.542 15.5509 104.558 15.7496 103.82 15.6751C103.107 15.6006 102.442 15.2279 102.049 14.6069C101.753 14.1846 101.606 13.6878 101.581 13.1909C101.581 12.6196 101.729 12.0482 102.049 11.5762C102.516 10.9055 103.082 10.3341 103.771 9.88698C104.804 9.16657 105.714 8.81879 106.502 8.81879C107.289 8.81879 108.027 9.19141 108.716 9.9615L106.502 11.7253C106.059 11.1539 105.222 11.0297 104.656 11.4768L104.583 11.5514C104.337 11.7004 104.164 11.924 104.066 12.1973C103.992 12.396 104.041 12.6196 104.164 12.7935C104.263 12.9177 104.41 13.017 104.583 13.017C104.779 13.0419 105.124 12.9425 105.616 12.7189C106.846 12.1973 107.781 11.8992 108.421 11.7998C108.962 11.7004 109.528 11.7501 110.044 11.9737C110.512 12.1724 110.905 12.5202 111.176 12.9425C111.52 13.4393 111.717 14.0355 111.742 14.6566C111.766 15.3025 111.594 15.9235 111.25 16.47C110.807 17.1408 110.241 17.7121 109.577 18.1593C108.224 19.1032 107.117 19.5007 106.231 19.3517C105.271 19.2026 104.484 18.7058 103.918 17.9854Z" fill="white"/>
</g>
</g>
</g>
<defs>
<clipPath id="clip0_1_106">
<rect width="136" height="51" fill="white"/>
</clipPath>
</defs>
</svg>
